<?xml version="1.0" encoding="UTF-8" standalone="no"?>
<!-- Created with Inkscape (http://www.inkscape.org/) -->

<svg
   width="149.11897mm"
   height="25.400017mm"
   viewBox="0 0 149.11897 25.400017"
   version="1.1"
   id="svg5"
   inkscape:version="1.1 (c68e22c387, 2021-05-23)"
   sodipodi:docname="was-logo-text.svg"
   xmlns:inkscape="http://www.inkscape.org/namespaces/inkscape"
   xmlns:sodipodi="http://sodipodi.sourceforge.net/DTD/sodipodi-0.dtd"
   xmlns="http://www.w3.org/2000/svg"
   xmlns:svg="http://www.w3.org/2000/svg">
  <sodipodi:namedview
     id="namedview7"
     pagecolor="#505050"
     bordercolor="#ffffff"
     borderopacity="1"
     inkscape:pageshadow="0"
     inkscape:pageopacity="0"
     inkscape:pagecheckerboard="1"
     inkscape:document-units="mm"
     showgrid="false"
     fit-margin-top="0"
     fit-margin-left="0"
     fit-margin-right="0"
     fit-margin-bottom="0"
     inkscape:zoom="0.72337262"
     inkscape:cx="541.21485"
     inkscape:cy="130.63807"
     inkscape:window-width="1920"
     inkscape:window-height="1001"
     inkscape:window-x="-9"
     inkscape:window-y="-9"
     inkscape:window-maximized="1"
     inkscape:current-layer="layer1" />
  <defs
     id="defs2">
    <rect
       x="-118.88755"
       y="320.71991"
       width="1024.3683"
       height="403.6647"
       id="rect2630" />
  </defs>
  <g
     inkscape:label="Calque 1"
     inkscape:groupmode="layer"
     id="layer1"
     transform="translate(-42.957741,-113.9429)">
    <text
       xml:space="preserve"
       transform="scale(0.26458333)"
       id="text2628"
       style="font-style:normal;font-weight:normal;font-size:40px;line-height:1.25;font-family:sans-serif;white-space:pre;shape-inside:url(#rect2630);fill:#000000;fill-opacity:1;stroke:none" />
    <g
       aria-label="WE ARE STARZ"
       id="text3296"
       style="font-size:35.2778px;line-height:1.25;stroke-width:0.264583">
      <path
         id="path17088"
         style="font-family:'Bebas Neue';-inkscape-font-specification:'Bebas Neue';fill:#ffffff"
         sodipodi:type="inkscape:offset"
         inkscape:radius="0"
         inkscape:original="M 133.97461 113.94336 C 132.09313 113.94336 130.6577 114.48455 129.66992 115.56641 C 128.68214 116.62474 128.18945 118.12999 128.18945 120.08203 C 128.18945 121.51666 128.50563 122.80853 129.14062 123.96094 C 129.77563 125.08982 130.89293 126.36037 132.49219 127.77148 C 133.76219 128.87686 134.63314 129.82928 135.10352 130.62891 C 135.57389 131.40502 135.80859 132.31089 135.80859 133.3457 C 135.80859 134.21589 135.63208 134.85018 135.2793 135.25 C 134.95004 135.62629 134.45735 135.81445 133.79883 135.81445 C 132.45827 135.81445 131.78711 135.01528 131.78711 133.41602 L 131.78711 131.72266 L 128.11914 131.72266 L 128.11914 133.13477 C 128.11914 135.13384 128.60019 136.67401 129.56445 137.75586 C 130.52871 138.81419 131.9525 139.34375 133.83398 139.34375 C 135.73898 139.34375 137.18409 138.80256 138.17188 137.7207 C 139.18317 136.63885 139.68945 135.08509 139.68945 133.0625 C 139.68945 131.51028 139.38296 130.15827 138.77148 129.00586 C 138.16 127.85345 137.0427 126.57322 135.41992 125.16211 C 134.14992 124.05674 133.26928 123.11596 132.77539 122.33984 C 132.30502 121.56373 132.06836 120.72768 132.06836 119.83398 C 132.06836 118.25824 132.71625 117.4707 134.00977 117.4707 C 134.64477 117.4707 135.12582 117.67049 135.45508 118.07031 C 135.78434 118.44661 135.94922 119.05763 135.94922 119.9043 L 135.94922 121.17578 L 139.61914 121.17578 L 139.61914 120.15234 C 139.61914 118.15326 139.13613 116.62474 138.17188 115.56641 C 137.23113 114.48455 135.83258 113.94336 133.97461 113.94336 z M 42.957031 114.29492 L 45.462891 138.99023 L 50.613281 138.99023 L 52.376953 122.33984 L 52.447266 122.33984 L 54.210938 138.99023 L 59.044922 138.99023 L 61.548828 114.29492 L 58.197266 114.29492 L 56.46875 133.27539 L 56.398438 133.27539 L 54.564453 114.29492 L 50.330078 114.29492 L 48.496094 133.27539 L 48.425781 133.27539 L 46.697266 114.29492 L 42.957031 114.29492 z M 63.525391 114.29492 L 63.525391 138.99023 L 74.107422 138.99023 L 74.107422 135.46289 L 67.404297 135.46289 L 67.404297 127.87695 L 72.732422 127.87695 L 72.732422 124.34961 L 67.404297 124.34961 L 67.404297 117.82422 L 74.107422 117.82422 L 74.107422 114.29492 L 63.525391 114.29492 z M 84.972656 114.29492 L 80.951172 138.99023 L 84.550781 138.99023 L 85.255859 134.15625 L 89.666016 134.15625 L 89.666016 134.08594 L 90.371094 138.99023 L 94.251953 138.99023 L 90.230469 114.29492 L 84.972656 114.29492 z M 96.121094 114.29492 L 96.121094 138.99023 L 100.00195 138.99023 L 100.00195 128.40625 L 101.3418 128.40625 C 102.2355 128.40625 102.86012 128.62932 103.21289 129.07617 C 103.58919 129.52303 103.77734 130.31252 103.77734 131.44141 L 103.77734 135.95703 C 103.77734 136.87426 103.80066 137.50855 103.84766 137.86133 C 103.8947 138.21411 103.98779 138.59042 104.12891 138.99023 L 108.08008 138.99023 C 107.89196 138.5669 107.77558 138.14404 107.72852 137.7207 C 107.68145 137.27385 107.65625 136.69774 107.65625 135.99219 L 107.65625 131.65234 C 107.65625 130.1942 107.45646 129.03034 107.05664 128.16016 C 106.68035 127.28997 106.02277 126.71386 105.08203 126.43164 L 105.08203 126.36133 C 106.77536 125.67929 107.62109 124.05571 107.62109 121.49219 L 107.62109 119.97461 C 107.62109 118.04609 107.16331 116.62426 106.24609 115.70703 C 105.32887 114.76629 103.87017 114.29492 101.87109 114.29492 L 96.121094 114.29492 z M 110.33789 114.29492 L 110.33789 138.99023 L 120.92188 138.99023 L 120.92188 135.46289 L 114.21875 135.46289 L 114.21875 127.87695 L 119.54492 127.87695 L 119.54492 124.34961 L 114.21875 124.34961 L 114.21875 117.82422 L 120.92188 117.82422 L 120.92188 114.29492 L 110.33789 114.29492 z M 140.88867 114.29492 L 140.88867 117.82422 L 144.94531 117.82422 L 144.94531 138.99023 L 148.82617 138.99023 L 148.82617 117.82422 L 152.88281 117.82422 L 152.88281 114.29492 L 140.88867 114.29492 z M 156.12891 114.29492 L 152.10742 138.99023 L 155.70508 138.99023 L 156.41016 134.15625 L 160.82031 134.15625 L 160.82031 134.08594 L 161.52539 138.99023 L 165.40625 138.99023 L 161.38477 114.29492 L 156.12891 114.29492 z M 167.27734 114.29492 L 167.27734 138.99023 L 171.15625 138.99023 L 171.15625 128.40625 L 172.49805 128.40625 C 173.39175 128.40625 174.01441 128.62932 174.36719 129.07617 C 174.74349 129.52303 174.93164 130.31252 174.93164 131.44141 L 174.93164 135.95703 C 174.93164 136.87426 174.95495 137.50855 175.00195 137.86133 C 175.04899 138.21411 175.14404 138.59042 175.28516 138.99023 L 179.23633 138.99023 C 179.04821 138.5669 178.92988 138.14404 178.88281 137.7207 C 178.83581 137.27385 178.8125 136.69774 178.8125 135.99219 L 178.8125 131.65234 C 178.8125 130.1942 178.61271 129.03034 178.21289 128.16016 C 177.8366 127.28997 177.17707 126.71386 176.23633 126.43164 L 176.23633 126.36133 C 177.92966 125.67929 178.77734 124.05571 178.77734 121.49219 L 178.77734 119.97461 C 178.77734 118.04609 178.31762 116.62426 177.40039 115.70703 C 176.48317 114.76629 175.02642 114.29492 173.02734 114.29492 L 167.27734 114.29492 z M 181.07031 114.29492 L 181.07031 117.82422 L 187.91406 117.82422 L 180.7168 135.5332 L 180.7168 138.99023 L 192.07617 138.99023 L 192.07617 135.46289 L 184.88086 135.46289 L 192.07617 117.75195 L 192.07617 114.29492 L 181.07031 114.29492 z M 100.00195 117.82422 L 101.76562 117.82422 C 102.44767 117.82422 102.94231 118.02401 103.24805 118.42383 C 103.57731 118.82365 103.74219 119.46958 103.74219 120.36328 L 103.74219 122.26758 C 103.74219 123.20832 103.54044 123.87948 103.14062 124.2793 C 102.76432 124.67911 102.18822 124.87891 101.41211 124.87891 L 100.00195 124.87891 L 100.00195 117.82422 z M 171.15625 117.82422 L 172.91992 117.82422 C 173.60196 117.82422 174.0966 118.02401 174.40234 118.42383 C 174.7316 118.82365 174.89648 119.46958 174.89648 120.36328 L 174.89648 122.26758 C 174.89648 123.20832 174.69669 123.87948 174.29688 124.2793 C 173.92057 124.67911 173.34447 124.87891 172.56836 124.87891 L 171.15625 124.87891 L 171.15625 117.82422 z M 87.408203 118.59961 L 87.478516 118.59961 L 89.207031 130.80664 L 85.714844 130.80664 L 87.408203 118.59961 z M 158.5625 118.59961 L 158.63281 118.59961 L 160.36133 130.80664 L 156.86914 130.80664 L 158.5625 118.59961 z "
         d="m 133.97461,113.94336 c -1.88148,0 -3.31691,0.54119 -4.30469,1.62305 -0.98778,1.05833 -1.48047,2.56358 -1.48047,4.51562 0,1.43463 0.31618,2.7265 0.95117,3.87891 0.63501,1.12888 1.75231,2.39943 3.35157,3.81054 1.27,1.10538 2.14095,2.0578 2.61133,2.85743 0.47037,0.77611 0.70507,1.68198 0.70507,2.71679 0,0.87019 -0.17651,1.50448 -0.52929,1.9043 -0.32926,0.37629 -0.82195,0.56445 -1.48047,0.56445 -1.34056,0 -2.01172,-0.79917 -2.01172,-2.39843 v -1.69336 h -3.66797 v 1.41211 c 0,1.99907 0.48105,3.53924 1.44531,4.62109 0.96426,1.05833 2.38805,1.58789 4.26953,1.58789 1.905,0 3.35011,-0.54119 4.3379,-1.62305 1.01129,-1.08185 1.51757,-2.63561 1.51757,-4.6582 0,-1.55222 -0.30649,-2.90423 -0.91797,-4.05664 -0.61148,-1.15241 -1.72878,-2.43264 -3.35156,-3.84375 -1.27,-1.10537 -2.15064,-2.04615 -2.64453,-2.82227 -0.47037,-0.77611 -0.70703,-1.61216 -0.70703,-2.50586 0,-1.57574 0.64789,-2.36328 1.94141,-2.36328 0.635,0 1.11605,0.19979 1.44531,0.59961 0.32926,0.3763 0.49414,0.98732 0.49414,1.83399 v 1.27148 h 3.66992 v -1.02344 c 0,-1.99908 -0.48301,-3.5276 -1.44726,-4.58593 -0.94075,-1.08186 -2.3393,-1.62305 -4.19727,-1.62305 z m -91.017579,0.35156 2.50586,24.69531 h 5.15039 l 1.763672,-16.65039 h 0.07031 l 1.763672,16.65039 h 4.833984 l 2.503906,-24.69531 h -3.351562 l -1.728516,18.98047 h -0.07031 l -1.833985,-18.98047 h -4.234375 l -1.833984,18.98047 h -0.07031 l -1.728515,-18.98047 z m 20.56836,0 v 24.69531 h 10.582031 v -3.52734 h -6.703125 v -7.58594 h 5.328125 v -3.52734 h -5.328125 v -6.52539 h 6.703125 v -3.5293 z m 21.447265,0 -4.021484,24.69531 h 3.599609 l 0.705078,-4.83398 h 4.410157 v -0.0703 l 0.705078,4.90429 h 3.880859 l -4.021484,-24.69531 z m 11.148438,0 v 24.69531 h 3.880856 v -10.58398 h 1.33985 c 0.8937,0 1.51832,0.22307 1.87109,0.66992 0.3763,0.44686 0.56445,1.23635 0.56445,2.36524 v 4.51562 c 0,0.91723 0.0233,1.55152 0.0703,1.9043 0.047,0.35278 0.14013,0.72909 0.28125,1.1289 h 3.95117 c -0.18812,-0.42333 -0.3045,-0.84619 -0.35156,-1.26953 -0.0471,-0.44685 -0.0723,-1.02296 -0.0723,-1.72851 v -4.33985 c 0,-1.45814 -0.19979,-2.622 -0.59961,-3.49218 -0.37629,-0.87019 -1.03387,-1.4463 -1.97461,-1.72852 v -0.0703 c 1.69333,-0.68204 2.53906,-2.30562 2.53906,-4.86914 v -1.51758 c 0,-1.92852 -0.45778,-3.35035 -1.375,-4.26758 -0.91722,-0.94074 -2.37592,-1.41211 -4.375,-1.41211 z m 14.216796,0 v 24.69531 h 10.58399 v -3.52734 h -6.70313 v -7.58594 h 5.32617 v -3.52734 h -5.32617 v -6.52539 h 6.70313 v -3.5293 z m 30.55078,0 v 3.5293 h 4.05664 v 21.16601 h 3.88086 v -21.16601 h 4.05664 v -3.5293 z m 15.24024,0 -4.02149,24.69531 h 3.59766 l 0.70508,-4.83398 h 4.41015 v -0.0703 l 0.70508,4.90429 h 3.88086 l -4.02148,-24.69531 z m 11.14843,0 v 24.69531 h 3.87891 v -10.58398 h 1.3418 c 0.8937,0 1.51636,0.22307 1.86914,0.66992 0.3763,0.44686 0.56445,1.23635 0.56445,2.36524 v 4.51562 c 0,0.91723 0.0233,1.55152 0.0703,1.9043 0.047,0.35278 0.14209,0.72909 0.28321,1.1289 h 3.95117 c -0.18812,-0.42333 -0.30645,-0.84619 -0.35352,-1.26953 -0.047,-0.44685 -0.0703,-1.02296 -0.0703,-1.72851 v -4.33985 c 0,-1.45814 -0.19979,-2.622 -0.59961,-3.49218 -0.37629,-0.87019 -1.03582,-1.4463 -1.97656,-1.72852 v -0.0703 c 1.69333,-0.68204 2.54101,-2.30562 2.54101,-4.86914 v -1.51758 c 0,-1.92852 -0.45972,-3.35035 -1.37695,-4.26758 -0.91722,-0.94074 -2.37397,-1.41211 -4.37305,-1.41211 z m 13.79297,0 v 3.5293 h 6.84375 l -7.19726,17.70898 v 3.45703 h 11.35937 v -3.52734 h -7.19531 l 7.19531,-17.71094 v -3.45703 z m -81.06836,3.5293 h 1.76367 c 0.68205,0 1.17669,0.19979 1.48243,0.59961 0.32926,0.39982 0.49414,1.04575 0.49414,1.93945 v 1.9043 c 0,0.94074 -0.20175,1.6119 -0.60157,2.01172 -0.3763,0.39981 -0.9524,0.59961 -1.72851,0.59961 h -1.41016 z m 71.1543,0 h 1.76367 c 0.68204,0 1.17668,0.19979 1.48242,0.59961 0.32926,0.39982 0.49414,1.04575 0.49414,1.93945 v 1.9043 c 0,0.94074 -0.19979,1.6119 -0.5996,2.01172 -0.37631,0.39981 -0.95241,0.59961 -1.72852,0.59961 h -1.41211 z m -83.748047,0.77539 h 0.07031 l 1.728515,12.20703 h -3.492187 z m 71.154297,0 h 0.0703 l 1.72852,12.20703 h -3.49219 z" />
    </g>
  </g>
</svg>
